<svg width="16" height="16" viewBox="0 0 16 16" fill="none" xmlns="http://www.w3.org/2000/svg">
<g clip-path="url(#clip0_339_2222)">
<path d="M0.45303 13.5286L0.453043 13.5286L7.04345 1.54678C7.13271 1.38461 7.26812 1.24658 7.43688 1.14937C7.60576 1.0521 7.80067 1.00002 8.00035 1.00002C8.20004 1.00002 8.39495 1.0521 8.56382 1.14937C8.73259 1.24658 8.868 1.38461 8.95726 1.54678L15.547 13.5286L15.547 13.5286C15.631 13.6814 15.6717 13.8511 15.6662 14.0215C15.6606 14.1919 15.609 14.3591 15.515 14.5071C15.4208 14.6553 15.2869 14.7796 15.1247 14.8667C14.9623 14.9538 14.7781 15 14.5898 15H14.5897H1.41026H1.4102C1.22194 15 1.03766 14.9538 0.875351 14.8667C0.713119 14.7796 0.57918 14.6553 0.485024 14.5071C0.390952 14.3591 0.339355 14.1919 0.33383 14.0215C0.328305 13.8511 0.368965 13.6814 0.45303 13.5286ZM8.01449 13.6563H8.01551L9.05752 12.2939L9.39057 12.2802C9.39057 12.2801 9.39057 12.2801 9.39057 12.2801C9.37586 11.9245 9.2173 11.5917 8.95361 11.35C8.69041 11.1088 8.34255 10.9763 7.98346 10.9759H7.98308H7.96334V10.9758L7.95753 10.9759C7.77724 10.979 7.599 11.0164 7.43311 11.0861C7.2672 11.1558 7.11647 11.2567 6.99018 11.3838C6.86385 11.5109 6.76449 11.6616 6.69877 11.8275C6.63304 11.9935 6.60252 12.1709 6.6094 12.3491L6.60941 12.3495C6.6236 12.7052 6.78164 13.0383 7.04495 13.2804C7.30776 13.5221 7.65538 13.6552 8.01449 13.6563ZM7.27163 4.88077C7.07523 5.06776 6.96166 5.32497 6.96166 5.59682V9.62434C6.96166 9.8962 7.07523 10.1534 7.27163 10.3404C7.46747 10.5269 7.72975 10.6289 8 10.6289C8.27025 10.6289 8.53253 10.5269 8.72837 10.3404C8.92477 10.1534 9.03835 9.8962 9.03835 9.62434V5.59682C9.03835 5.32497 8.92477 5.06776 8.72837 4.88077C8.53253 4.6943 8.27025 4.59224 8 4.59224C7.72975 4.59224 7.46747 4.6943 7.27163 4.88077Z" fill="#B9422C" stroke="#B9422C" stroke-width="0.666667"/>
</g>
<defs>
<clipPath id="clip0_339_2222">
<rect width="16" height="16" fill="white"/>
</clipPath>
</defs>
</svg>
