<svg width="39" height="39" viewBox="0 0 39 39" fill="none" xmlns="http://www.w3.org/2000/svg">
<circle cx="19.5" cy="19.5" r="19.5" fill="#EEF0F2"/>
<path d="M28 13H24.83L23 11H17L15.17 13H12C10.9 13 10 13.9 10 15V27C10 28.1 10.9 29 12 29H28C29.1 29 30 28.1 30 27V15C30 13.9 29.1 13 28 13ZM28 27H12V15H16.05L16.64 14.35L17.88 13H22.12L23.36 14.35L23.95 15H28V27Z" fill="#806B6B"/>
<path d="M20 25C17.79 25 16 23.21 16 21H18L15.5 18.5L13 21H15C15 23.76 17.24 26 20 26C20.86 26 21.65 25.76 22.36 25.38L21.62 24.64C21.13 24.87 20.58 25 20 25Z" fill="#806B6B"/>
<path d="M20 16C19.14 16 18.35 16.24 17.64 16.62L18.38 17.35C18.87 17.13 19.42 17 20 17C22.21 17 24 18.79 24 21H22L24.5 23.5L27 21H25C25 18.24 22.76 16 20 16Z" fill="#806B6B"/>
</svg>
