<svg width="113" height="113" viewBox="0 0 113 113" fill="none" xmlns="http://www.w3.org/2000/svg">
<circle cx="56.5" cy="56.5" r="55" fill="#EFF7D5" stroke="#597F51" stroke-width="3"/>
<path fill-rule="evenodd" clip-rule="evenodd" d="M53.6599 45.0004L56.9041 48.1438L54.6789 50.4404L50.5224 46.4132C49.67 46.8472 48.646 47.3842 47.5265 47.994L52.5198 52.8321C53.1614 52.4875 53.8951 52.292 54.6744 52.292C57.1927 52.292 59.2343 54.3335 59.2343 56.8518C59.2343 59.3702 57.1927 61.4117 54.6744 61.4117C52.1561 61.4117 50.1145 59.3702 50.1145 56.8518C50.1145 56.2839 50.2184 55.7402 50.4081 55.2387L44.6168 49.6275C43.7828 50.1103 42.9335 50.6154 42.0928 51.1334L45.3885 54.3267L43.1633 56.6233L39.3314 52.9105C38.5829 53.4165 37.8662 53.9244 37.2017 54.4261C37.1059 54.4985 37.0104 54.574 36.9152 54.6526L41.0186 58.6285C41.6602 58.2839 42.3938 58.0884 43.1731 58.0884C45.6915 58.0884 47.733 60.1299 47.733 62.6483C47.733 65.1666 45.6915 67.2081 43.1731 67.2081C40.6548 67.2081 38.6132 65.1666 38.6132 62.6483C38.6132 62.0803 38.7171 61.5366 38.9068 61.0351L34.764 57.0211C34.1073 57.9323 33.4764 58.9886 32.8778 60.168L36.5007 63.6783L34.2754 65.9749L31.4869 63.2731C31.0648 64.3362 30.6656 65.4632 30.2923 66.6434L31.5124 67.8255C32.154 67.4809 32.8877 67.2854 33.667 67.2854C36.1853 67.2854 38.2269 69.3269 38.2269 71.8453C38.2269 74.3636 36.1853 76.4052 33.667 76.4052C31.1486 76.4052 29.1071 74.3636 29.1071 71.8453C29.1071 71.2773 29.211 70.7337 29.4007 70.2322L29.3026 70.1371C27.8606 75.8453 27 82.4266 27 88.9343C34.3955 86.105 42.5503 79.489 49.2684 74.0386C51.8176 71.9704 54.1599 70.0701 56.1754 68.6081C62.994 63.6622 73.453 52.2263 76.0864 46.4274C73.685 52.5893 68.3735 63.639 60.3102 70.6175C59.1034 71.662 57.9916 72.6403 56.9407 73.565L56.9406 73.5651C48.7709 80.7536 44.2788 84.7062 27.4253 91.356C27.2828 91.3737 27.141 91.3909 27 91.4074C27.0501 91.4263 27.1007 91.4451 27.1517 91.4638L27 91.5234C27.0784 91.5143 27.1577 91.505 27.2379 91.4953C36.1026 94.7136 57.8784 96.5231 76.0765 78.5393C94.2829 60.5476 85.2002 33.2948 78.227 21.6076C78.1772 21.3919 78.1301 21.1888 78.086 21C77.2663 25.8808 71.2163 37.2637 53.6599 45.0004ZM78.7741 24.0239C79.1354 25.6481 79.5382 27.5138 79.8976 29.2876C79.5963 27.5759 79.2231 25.8216 78.7741 24.0239ZM34.9808 71.8839C34.9808 72.5882 34.4099 73.1592 33.7056 73.1592C33.0013 73.1592 32.4304 72.5882 32.4304 71.8839C32.4304 71.1796 33.0013 70.6087 33.7056 70.6087C34.4099 70.6087 34.9808 71.1796 34.9808 71.8839ZM43.2118 63.9621C43.916 63.9621 44.487 63.3912 44.487 62.6869C44.487 61.9826 43.916 61.4117 43.2118 61.4117C42.5075 61.4117 41.9365 61.9826 41.9365 62.6869C41.9365 63.3912 42.5075 63.9621 43.2118 63.9621ZM55.9883 56.8905C55.9883 57.5948 55.4173 58.1657 54.713 58.1657C54.0088 58.1657 53.4378 57.5948 53.4378 56.8905C53.4378 56.1862 54.0088 55.6153 54.713 55.6153C55.4173 55.6153 55.9883 56.1862 55.9883 56.8905Z" fill="url(#paint0_linear_196_2221)"/>
<defs>
<linearGradient id="paint0_linear_196_2221" x1="54.0347" y1="21" x2="54.0347" y2="91.5234" gradientUnits="userSpaceOnUse">
<stop stop-color="#4E804C"/>
<stop offset="0.0001" stop-color="#A0C53C"/>
<stop offset="1" stop-color="#4E804C"/>
</linearGradient>
</defs>
</svg>
