<svg width="20" height="20" viewBox="0 0 20 20" fill="none" xmlns="http://www.w3.org/2000/svg">
<path d="M10.0042 5.41667C12.3042 5.41667 14.1708 7.28334 14.1708 9.58334C14.1708 10.125 14.0625 10.6333 13.8708 11.1083L16.3042 13.5417C17.5625 12.4917 18.5542 11.1333 19.1625 9.58334C17.7208 5.925 14.1625 3.33334 9.99583 3.33334C8.82916 3.33334 7.71249 3.54167 6.67916 3.91667L8.47916 5.71667C8.95416 5.525 9.46249 5.41667 10.0042 5.41667ZM1.67083 3.14167L3.95416 5.425C2.57083 6.5 1.48749 7.93334 0.837494 9.58334C2.27916 13.2417 5.83749 15.8333 10.0042 15.8333C11.2958 15.8333 12.5292 15.5833 13.6542 15.1333L14.0042 15.4833L16.4458 17.9167L17.5042 16.8583L2.72916 2.08334L1.67083 3.14167ZM6.27916 7.75L7.57083 9.04167C7.52916 9.21667 7.50416 9.4 7.50416 9.58334C7.50416 10.9667 8.62083 12.0833 10.0042 12.0833C10.1875 12.0833 10.3708 12.0583 10.5458 12.0167L11.8375 13.3083C11.2792 13.5833 10.6625 13.75 10.0042 13.75C7.70416 13.75 5.83749 11.8833 5.83749 9.58334C5.83749 8.925 6.00416 8.30834 6.27916 7.75ZM9.87083 7.1L12.4958 9.725L12.5125 9.59167C12.5125 8.20834 11.3958 7.09167 10.0125 7.09167L9.87083 7.1Z" fill="#A0999E"/>
</svg>
